<svg xmlns="http://www.w3.org/2000/svg" width="8" height="13" viewBox="0 0 8 13" >
  <path d="M6.49702 11.51C6.24406 11.5092 5.98874 11.4056 5.79684 11.2139C5.79671 11.2138 5.79658 11.2137 5.79645 11.2136L1.29684 6.72395L1.29645 6.72355C0.90137 6.32848 0.90119 5.7023 1.29589 5.307C1.29608 5.30682 1.29626 5.30663 1.29645 5.30645L5.78566 0.797233L5.78566 0.797232L5.78645 0.796447C6.18171 0.401184 6.80829 0.401184 7.20355 0.796447C7.59882 1.19171 7.59882 1.81829 7.20355 2.21355L7.20313 2.21398L3.40753 6.00043L7.20355 9.79645C7.5967 10.1896 7.5988 10.8116 7.20985 11.2072C7.11895 11.3031 7.00937 11.3795 6.88783 11.4316C6.76438 11.4845 6.6313 11.5112 6.49702 11.51ZM6.49702 11.51C6.49801 11.51 6.49901 11.51 6.5 11.51V11.01L6.49391 11.51C6.49495 11.51 6.49598 11.51 6.49702 11.51Z" fill="white" stroke="white"/>
</svg>
